<mxfile host="65bd71144e">
    <diagram id="JMDhYsE0MmNTPuYS153w" name="Page-1">
        <mxGraphModel dx="488" dy="408" grid="1" gridSize="10" guides="1" tooltips="1" connect="1" arrows="1" fold="1" page="1" pageScale="1" pageWidth="850" pageHeight="1100" math="0" shadow="0">
            <root>
                <mxCell id="0"/>
                <mxCell id="1" parent="0"/>
                <mxCell id="12" style="edgeStyle=none;html=1;exitX=1.015;exitY=0.43;exitDx=0;exitDy=0;fontSize=14;fontColor=#FFFFFF;exitPerimeter=0;" edge="1" parent="1" source="2" target="11">
                    <mxGeometry relative="1" as="geometry"/>
                </mxCell>
                <mxCell id="18" style="edgeStyle=none;html=1;exitX=0.5;exitY=1;exitDx=0;exitDy=0;fontSize=14;fontColor=#FFFFFF;" edge="1" parent="1" source="2" target="14">
                    <mxGeometry relative="1" as="geometry"/>
                </mxCell>
                <mxCell id="19" style="edgeStyle=none;html=1;exitX=0.5;exitY=1;exitDx=0;exitDy=0;fontSize=14;fontColor=#FFFFFF;" edge="1" parent="1" source="2" target="15">
                    <mxGeometry relative="1" as="geometry"/>
                </mxCell>
                <mxCell id="2" value="&lt;font style=&quot;font-size: 22px&quot;&gt;&lt;b&gt;Faucet&lt;/b&gt;&lt;/font&gt;" style="ellipse;whiteSpace=wrap;html=1;fillColor=#60a917;fontColor=#ffffff;strokeColor=none;" vertex="1" parent="1">
                    <mxGeometry x="230" y="150" width="120" height="70" as="geometry"/>
                </mxCell>
                <mxCell id="5" style="edgeStyle=none;html=1;exitX=1;exitY=0.3333333333333333;exitDx=0;exitDy=0;exitPerimeter=0;fontSize=22;fontColor=#FFFFFF;" edge="1" parent="1" source="3" target="2">
                    <mxGeometry relative="1" as="geometry"/>
                </mxCell>
                <mxCell id="10" value="ether" style="edgeLabel;html=1;align=center;verticalAlign=middle;resizable=0;points=[];fontSize=22;fontColor=#FFFFFF;" vertex="1" connectable="0" parent="5">
                    <mxGeometry x="0.2895" y="-1" relative="1" as="geometry">
                        <mxPoint as="offset"/>
                    </mxGeometry>
                </mxCell>
                <mxCell id="3" value="Clientes&lt;br&gt;&amp;nbsp;" style="shape=umlActor;verticalLabelPosition=bottom;verticalAlign=top;html=1;outlineConnect=0;fontSize=22;fontColor=#FFFFFF;" vertex="1" parent="1">
                    <mxGeometry x="70" y="90" width="30" height="60" as="geometry"/>
                </mxCell>
                <mxCell id="6" value="Resgatar Ether de uma tiorneira publica" style="text;html=1;strokeColor=none;fillColor=none;align=center;verticalAlign=middle;whiteSpace=wrap;rounded=0;fontSize=22;fontColor=#FFFFFF;" vertex="1" parent="1">
                    <mxGeometry x="150" y="50" width="230" height="5" as="geometry"/>
                </mxCell>
                <mxCell id="11" value="&lt;font style=&quot;font-size: 14px&quot;&gt;Fundos: 16 Ethers&lt;/font&gt;" style="ellipse;shape=cloud;whiteSpace=wrap;html=1;fontSize=22;fontColor=#FFFFFF;" vertex="1" parent="1">
                    <mxGeometry x="350" y="80" width="170" height="80" as="geometry"/>
                </mxCell>
                <mxCell id="14" value="Add Fundos" style="shape=step;perimeter=stepPerimeter;whiteSpace=wrap;html=1;fixedSize=1;fontSize=14;fontColor=#FFFFFF;rotation=90;" vertex="1" parent="1">
                    <mxGeometry x="170" y="342.5" width="150" height="45" as="geometry"/>
                </mxCell>
                <mxCell id="15" value="Retirada&amp;nbsp; Fundos" style="shape=step;perimeter=stepPerimeter;whiteSpace=wrap;html=1;fixedSize=1;fontSize=14;fontColor=#FFFFFF;rotation=90;" vertex="1" parent="1">
                    <mxGeometry x="250" y="347.5" width="155" height="40" as="geometry"/>
                </mxCell>
            </root>
        </mxGraphModel>
    </diagram>
</mxfile>